<svg width="66" height="66" viewBox="0 0 66 66" fill="none" xmlns="http://www.w3.org/2000/svg">
<path fill-rule="evenodd" clip-rule="evenodd" d="M21.577 1.21166C20.3053 2.57559 19.4382 5.60428 18.2817 12.7178C17.847 15.3927 17.361 17.7115 17.2021 17.8709C17.0427 18.0298 13.8376 18.7711 10.0796 19.5176C2.45077 21.0334 0.254308 22.1984 0.254308 24.729C0.254308 27.2008 2.42924 28.3826 9.76534 29.8966C21.2458 32.2666 20.5352 34.7175 7.62824 37.2714C1.44508 38.4945 -1.57084 41.5628 0.817683 44.201C1.91766 45.4166 6.48403 46.7555 12.9657 47.7627C18.2643 48.5861 18.0868 48.3586 19.4754 56.0999C21.0852 65.069 23.4999 67.9115 26.7498 64.6623C27.947 63.4659 28.6041 61.8879 29.3403 58.4414C31.0421 50.4719 31.6642 48.6053 32.6821 48.4098C34.1773 48.1217 35.5752 50.8432 36.7649 56.3577C38.6034 64.8793 40.7376 67.556 43.7838 65.1604C45.3552 63.925 46.6431 59.8821 47.675 52.9519C48.0324 50.5522 48.5084 48.4162 48.7331 48.2044C48.9583 47.9931 52.0231 47.2437 55.5442 46.5396C64.4872 44.7509 66.8222 43.3206 65.6902 40.3245C65.0023 38.5038 62.4735 37.3814 56.1099 36.0721C49.9559 34.806 48.2692 34.117 48.2692 32.8683C48.2692 31.5178 50.5332 30.4599 56.1262 29.1966C62.9903 27.6465 64.3173 27.103 65.4493 25.376C66.7011 23.4651 65.8019 21.7427 62.924 20.5406C61.2594 19.8452 50.0321 17.5014 48.1843 17.463C47.9776 17.4589 47.3747 15.0331 46.8451 12.0731C45.0397 1.98382 43.64 -0.571802 40.3686 0.24865C38.4655 0.726374 37.3922 3.06554 36.024 9.71411C33.7245 20.8856 31.265 20.3945 28.7763 8.26813C27.4901 2.00069 26.215 -0.000976562 23.5092 -0.000976562C23.0681 -0.000976562 22.198 0.544827 21.577 1.21166ZM28.9696 29.4114C29.8076 31.2501 29.8472 35.1929 29.0429 36.6959C28.043 38.5638 26.3308 38.0866 25.5503 35.7218C23.9673 30.9248 27.0589 25.2189 28.9696 29.4114ZM40.6829 29.0547C41.5448 30.6653 41.4267 35.6596 40.4966 36.9316C39.4909 38.3071 37.9644 37.7648 37.2025 35.762C36.418 33.6981 36.482 32.3173 37.4726 29.9473C38.4078 27.7099 39.7616 27.3335 40.6829 29.0547Z" fill="white"/>
<rect x="18" y="17.999" width="30" height="30" rx="15" fill="black"/>
<path fill-rule="evenodd" clip-rule="evenodd" d="M26.2497 25.6901C26.3754 25.5694 26.5414 25.499 26.7124 25.499H42.6741C42.9658 25.499 43.1117 25.851 42.9055 26.0572L39.7523 29.2104C39.6317 29.3311 39.4657 29.4015 39.2897 29.4015H23.3279C23.0362 29.4015 22.8904 29.0494 23.0966 28.8433L26.2497 25.6901ZM26.2497 37.4626C26.3704 37.3419 26.5363 37.2715 26.7124 37.2715H42.6741C42.9658 37.2715 43.1117 37.6235 42.9055 37.8297L39.7523 40.9828C39.6317 41.1035 39.4657 41.1739 39.2897 41.1739H23.3279C23.0362 41.1739 22.8904 40.8219 23.0966 40.6157L26.2497 37.4626ZM39.2897 31.3486C39.4657 31.3486 39.6317 31.419 39.7523 31.5397L42.9055 34.6929C43.1117 34.899 42.9658 35.2511 42.6741 35.2511H26.7124C26.5363 35.2511 26.3704 35.1807 26.2497 35.06L23.0966 31.9068C22.8904 31.7007 23.0362 31.3486 23.3279 31.3486H39.2897Z" fill="url(#paint0_linear_2453_9205)"/>
<defs>
<linearGradient id="paint0_linear_2453_9205" x1="38.7188" y1="22.3475" x2="27.672" y2="43.5066" gradientUnits="userSpaceOnUse">
<stop stop-color="#00FFA3"/>
<stop offset="1" stop-color="#DC1FFF"/>
</linearGradient>
</defs>
</svg>
