<?xml version="1.0" encoding="UTF-8"?><svg id="Layer_1" xmlns="http://www.w3.org/2000/svg" viewBox="0 0 1080.03 491.21"><defs><style>.cls-1{fill:#9575ea;stroke-width:0px;}</style></defs><path class="cls-1" d="m745.21,211.31h-37.91c-4.65,0-8.41-3.77-8.41-8.43V41.04c0-4.65-3.77-8.41-8.43-8.41h-20.16c-4.65,0-8.43,3.76-8.43,8.41v196.15c0,4.65,3.77,8.41,8.43,8.41h74.91c4.65,0,8.43-3.76,8.43-8.41v-17.45c0-4.65-3.77-8.43-8.43-8.43Z"/><path class="cls-1" d="m847.19,211.31h-37.91c-4.65,0-8.41-3.77-8.41-8.43V41.04c0-4.65-3.77-8.41-8.43-8.41h-20.16c-4.65,0-8.43,3.76-8.43,8.41v196.15c0,4.65,3.77,8.41,8.43,8.41h74.91c4.65,0,8.43-3.76,8.43-8.41v-17.45c0-4.65-3.77-8.43-8.43-8.43Z"/><path class="cls-1" d="m911.27,66.92h37.91c4.65,0,8.43-3.77,8.43-8.43v-17.45c0-4.65-3.77-8.41-8.43-8.41h-74.91c-4.65,0-8.43,3.76-8.43,8.41v196.15c0,4.65,3.77,8.41,8.43,8.41h74.91c4.65,0,8.43-3.76,8.43-8.41v-17.45c0-4.65-3.77-8.43-8.43-8.43h-37.91c-4.65,0-8.41-3.77-8.41-8.43v-35.79c0-4.65,3.76-8.43,8.41-8.43h25.28c4.65,0,8.43-3.77,8.43-8.43v-17.44c0-4.65-3.77-8.43-8.43-8.43h-25.28c-4.65,0-8.41-3.77-8.41-8.43v-40.61c0-4.65,3.76-8.41,8.41-8.41Z"/><path class="cls-1" d="m1071.61,211.31h-54.08c-6.32,0-10.39-6.71-7.46-12.32l66.92-128.14c.62-1.21.95-2.54.95-3.89v-25.92c0-4.65-3.77-8.41-8.43-8.41h-92.05c-4.65,0-8.41,3.76-8.41,8.41v17.45c0,4.65,3.76,8.43,8.41,8.43h47.14c6.33,0,10.4,6.72,7.45,12.34l-67.45,128.41c-.63,1.22-.97,2.56-.97,3.92v25.6c0,4.65,3.77,8.41,8.43,8.41h99.57c4.65,0,8.43-3.76,8.43-8.41v-17.45c0-4.65-3.77-8.43-8.43-8.43Z"/><path class="cls-1" d="m559.19,158.1c-3.45,2.3-4.76,6.45-2.92,9.28,1.84,2.83,6.13,3.25,9.58.95,3.45-2.3,4.76-6.46,2.91-9.29-1.84-2.82-6.13-3.25-9.57-.94Z"/><path class="cls-1" d="m586.04,174.55c-3.09-1.36-7,.6-8.72,4.37-1.72,3.76-.62,7.91,2.47,9.26,3.1,1.35,7.01-.61,8.73-4.36,1.72-3.77.6-7.92-2.49-9.27Z"/><path class="cls-1" d="m649.65,235.54l-39.06-196.14c-.79-3.94-4.25-6.78-8.27-6.78h-30.98c-4.03,0-7.48,2.84-8.27,6.79l-14.37,72.67-7.28,36.79c2.81-2.09,5.82-4.49,9.11-7.24,8.75-6.91,32.74-31.82,41.8-23.76,11.46,10.2-13.2,30.61-4.76,38.12h0c8.44,7.52,25.86-19.33,37.32-9.13,9.06,8.06-12.91,34.78-18.76,44.27-2.14,3.27-4.01,6.26-5.65,9.06,2.95.82,5.3,3.21,5.98,6.32l7.04,32.46c.85,3.87,4.27,6.63,8.24,6.63h19.64c5.32,0,9.3-4.85,8.27-10.06Z"/><path class="cls-1" d="m622.46,443.68h-37.91c-4.65,0-8.43-3.77-8.43-8.43v-161.84c0-4.65-3.76-8.41-8.41-8.41h-20.16c-4.65,0-8.43,3.76-8.43,8.41v196.15c0,4.65,3.77,8.41,8.43,8.41h74.91c4.65,0,8.43-3.76,8.43-8.41v-17.45c0-4.65-3.77-8.43-8.43-8.43Z"/><path class="cls-1" d="m871.89,371.92c-3.22-3.09-3.46-8.2-.5-11.54,7.22-8.1,10.97-18.33,10.97-29.5v-14.75c0-30.98-24.37-51.13-58.96-51.13h-42.42c-4.65,0-8.43,3.76-8.43,8.41v196.15c0,4.65,3.77,8.41,8.43,8.41h47.23c34.29,0,58.66-23.16,58.66-56.56v-14.13c0-13.34-5.27-26.07-14.99-35.36Zm-62.32-65.41c0-2.33.94-4.43,2.46-5.95,1.52-1.53,3.63-2.47,5.95-2.47,15.13,0,27.38,12.25,27.38,27.38v5.71c0,13.84-7.22,21.36-19.56,21.36h-7.82c-4.65,0-8.41-3.77-8.41-8.43v-37.6Zm40.31,116.11c0,13.24-7.22,22.26-19.56,22.26h-12.34c-4.65,0-8.41-3.77-8.41-8.43v-42.72c0-4.65,3.76-8.41,8.41-8.41h12.34c12.34,0,19.56,8.41,19.56,21.96v15.34Z"/><path class="cls-1" d="m938.03,317.03c0-14.44,7.82-21.97,18.95-21.97,10.53,0,18.95,6.62,18.95,17.75v8.43c0,4.65,3.76,8.43,8.41,8.43h20.16c4.65,0,8.43-3.77,8.43-8.43v-5.41c0-33.69-21.97-55.05-55.95-55.05s-56.26,23.16-56.26,58.97c0,64.98,77.32,61.07,77.32,104.38,0,16.25-9.63,24.97-21.66,24.97s-22.56-7.22-22.56-24.66v-5.12c0-4.65-3.77-8.43-8.43-8.43h-20.16c-4.65,0-8.43,3.77-8.43,8.43v.6c0,37.91,23.17,62.27,58.97,62.27s59.56-24.37,59.56-62.27c0-70.09-77.31-65.58-77.31-102.88Z"/><path class="cls-1" d="m709.34,399.86c-2.82,1.84-3.25,6.13-.94,9.57,2.3,3.45,6.45,4.76,9.28,2.92,2.83-1.84,3.25-6.13.95-9.58-2.3-3.45-6.46-4.76-9.29-2.91Z"/><path class="cls-1" d="m734.13,380.09c-3.77-1.72-7.92-.6-9.27,2.49-1.36,3.08.6,7,4.37,8.72,3.76,1.72,7.91.62,9.26-2.47,1.35-3.1-.61-7.01-4.36-8.73Z"/><path class="cls-1" d="m668.18,376.28c10.2-11.46,30.61,13.2,38.12,4.76h0c7.51-8.45-19.34-25.87-9.14-37.32,7.46-8.38,30.87,9.78,41.85,17.19l-3.93-19.72-13.83-69.42c-.78-3.94-4.24-6.78-8.26-6.78h-30.99c-4.02,0-7.47,2.84-8.26,6.79l-38.79,196.14c-1.04,5.21,2.95,10.05,8.27,10.05h18.75c3.96,0,7.39-2.76,8.22-6.63l7.05-32.46c.84-3.87,4.27-6.63,8.23-6.63h17.24c-2.79-4.19-6.33-8.81-10.81-14.17-6.91-8.75-31.82-32.74-23.76-41.8Z"/><path class="cls-1" d="m98.12,4.75c-17.93,17.93-5.99,42.97,7.84,66.19,6.91,11.57,14.31,22.67,18.67,32.21,4.27,9.34,5.63,17.07.8,22.28-5.21,4.83-12.94,3.47-22.28-.8-9.54-4.36-20.63-11.76-32.21-18.67-23.22-13.83-48.25-25.77-66.19-7.84-23.03,23.03,43.96,107.76,65.59,134.11,4.09,4.98,10.13,7.86,16.57,7.89,32.66.15,134.29-.85,134.29-.85,4.98,0,9.5-2.02,12.76-5.29,3.27-3.27,5.29-7.78,5.29-12.76,0,0,1.01-101.63.85-134.29-.03-6.44-2.91-12.49-7.89-16.57C205.88,48.71,121.15-18.28,98.12,4.75Zm52.36,174.6c5.62,9.62,3.85,21-4.03,25.48-7.84,4.51-18.75.33-24.33-9.24-1.85-3.11-2.85-6.43-3.18-9.65,0,0-.04.04,0,0-.67-6.58,1.89-12.79,7.17-15.79,2.41-1.37,5.07-1.96,7.8-1.81,6.21.37,12.68,4.4,16.56,11.02Zm54.36-32.91c-4.47,7.88-15.86,9.65-25.48,4.03-6.62-3.88-10.65-10.35-11.02-16.56-.15-2.74.44-5.4,1.81-7.8,3-5.29,9.21-7.84,15.79-7.17.04-.04,0,0,0,0,3.22.33,6.55,1.33,9.65,3.18,9.58,5.58,13.75,16.49,9.24,24.33Z"/><path class="cls-1" d="m393.09,486.46c17.93-17.93,5.99-42.97-7.84-66.19-6.91-11.57-14.31-22.67-18.67-32.21-4.27-9.34-5.63-17.07-.8-22.28,5.21-4.83,12.94-3.47,22.28.8,9.54,4.36,20.63,11.76,32.21,18.67,23.22,13.83,48.25,25.77,66.19,7.84,23.03-23.03-43.96-107.76-65.59-134.11-4.09-4.98-10.13-7.86-16.57-7.89-32.66-.15-134.29.85-134.29.85-4.98,0-9.5,2.02-12.76,5.29s-5.29,7.78-5.29,12.76c0,0-1.01,101.63-.85,134.29.03,6.44,2.91,12.49,7.89,16.57,26.35,21.63,111.08,88.62,134.11,65.59Zm-52.36-174.6c-5.62-9.62-3.85-21,4.03-25.48,7.84-4.51,18.75-.33,24.33,9.24,1.85,3.11,2.85,6.43,3.18,9.65,0,0,.04-.04,0,0,.67,6.58-1.89,12.79-7.17,15.79-2.41,1.37-5.07,1.96-7.8,1.81-6.21-.37-12.68-4.4-16.56-11.02Zm-54.36,32.91c4.47-7.88,15.86-9.65,25.48-4.03,6.62,3.88,10.65,10.35,11.02,16.56.15,2.74-.44,5.4-1.81,7.8-3,5.29-9.21,7.84-15.79,7.17-.04.04,0,0,0,0-3.22-.33-6.55-1.33-9.65-3.18-9.58-5.58-13.75-16.49-9.24-24.33Z"/><path class="cls-1" d="m486.46,98.12c-17.93-17.93-42.97-5.99-66.19,7.84-11.57,6.91-22.67,14.31-32.21,18.67-9.34,4.27-17.07,5.63-22.28.8-4.83-5.21-3.47-12.94.8-22.28,4.36-9.54,11.76-20.63,18.67-32.21,13.83-23.22,25.77-48.25,7.84-66.19-23.03-23.03-107.76,43.96-134.11,65.59-4.98,4.09-7.86,10.13-7.89,16.57-.15,32.66.85,134.29.85,134.29,0,4.98,2.02,9.5,5.29,12.76s7.78,5.29,12.76,5.29c0,0,101.63,1.01,134.29.85,6.44-.03,12.49-2.91,16.57-7.89,21.63-26.35,88.62-111.08,65.59-134.11Zm-174.6,52.36c-9.62,5.62-21,3.85-25.48-4.03-4.51-7.84-.33-18.75,9.24-24.33,3.11-1.85,6.43-2.85,9.65-3.18,0,0-.04-.04,0,0,6.58-.67,12.79,1.89,15.79,7.17,1.37,2.41,1.96,5.07,1.81,7.8-.37,6.21-4.4,12.68-11.02,16.56Zm32.91,54.36c-7.88-4.47-9.65-15.86-4.03-25.48,3.88-6.62,10.35-10.65,16.56-11.02,2.74-.15,5.4.44,7.8,1.81,5.29,3,7.84,9.21,7.17,15.79.04.04,0,0,0,0-.33,3.22-1.33,6.55-3.18,9.65-5.58,9.58-16.49,13.75-24.33,9.24Z"/><path class="cls-1" d="m4.75,393.09c17.93,17.93,42.97,5.99,66.19-7.84,11.57-6.91,22.67-14.31,32.21-18.67,9.34-4.27,17.07-5.63,22.28-.8,4.83,5.21,3.47,12.94-.8,22.28-4.36,9.54-11.76,20.63-18.67,32.21-13.83,23.22-25.77,48.25-7.84,66.19,23.03,23.03,107.76-43.96,134.11-65.59,4.98-4.09,7.86-10.13,7.89-16.57.15-32.66-.85-134.29-.85-134.29,0-4.98-2.02-9.5-5.29-12.76-3.27-3.27-7.78-5.29-12.76-5.29,0,0-101.63-1.01-134.29-.85-6.44.03-12.49,2.91-16.57,7.89-21.63,26.35-88.62,111.08-65.59,134.11Zm174.6-52.36c9.62-5.62,21-3.85,25.48,4.03,4.51,7.84.33,18.75-9.24,24.33-3.11,1.85-6.43,2.85-9.65,3.18,0,0,0,0,0,0-6.58.67-12.79-1.89-15.79-7.17-1.37-2.41-1.96-5.07-1.81-7.8.37-6.21,4.4-12.68,11.02-16.56Zm-32.91-54.36c7.88,4.47,9.65,15.86,4.03,25.48-3.88,6.62-10.35,10.65-16.56,11.02-2.74.15-5.4-.44-7.8-1.81-5.29-3-7.84-9.21-7.17-15.79-.04-.04,0,0,0,0,.33-3.22,1.33-6.55,3.18-9.65,5.58-9.58,16.49-13.75,24.33-9.24Z"/></svg>