<svg width="66" height="66" viewBox="0 0 66 66" fill="none" xmlns="http://www.w3.org/2000/svg">
<path fill-rule="evenodd" clip-rule="evenodd" d="M21.577 1.21264C20.3053 2.57657 19.4382 5.60526 18.2817 12.7188C17.847 15.3937 17.361 17.7125 17.2021 17.8719C17.0427 18.0307 13.8376 18.7721 10.0796 19.5186C2.45077 21.0344 0.254308 22.1993 0.254308 24.7299C0.254308 27.2018 2.42924 28.3836 9.76534 29.8976C21.2458 32.2676 20.5352 34.7185 7.62824 37.2724C1.44508 38.4955 -1.57084 41.5637 0.817683 44.202C1.91766 45.4175 6.48403 46.7564 12.9657 47.7637C18.2643 48.587 18.0868 48.3595 19.4754 56.1009C21.0852 65.07 23.4999 67.9125 26.7498 64.6632C27.947 63.4669 28.6041 61.8888 29.3403 58.4424C31.0421 50.4729 31.6642 48.6062 32.6821 48.4107C34.1773 48.1227 35.5752 50.8442 36.7649 56.3586C38.6034 64.8803 40.7376 67.5569 43.7838 65.1613C45.3552 63.926 46.6431 59.8831 47.675 52.9529C48.0324 50.5532 48.5084 48.4171 48.7331 48.2053C48.9583 47.9941 52.0231 47.2446 55.5442 46.5406C64.4872 44.7519 66.8222 43.3216 65.6902 40.3255C65.0023 38.5048 62.4735 37.3823 56.1099 36.0731C49.9559 34.8069 48.2692 34.118 48.2692 32.8693C48.2692 31.5187 50.5332 30.4609 56.1262 29.1976C62.9903 27.6475 64.3173 27.104 65.4493 25.377C66.7011 23.4661 65.8019 21.7437 62.924 20.5416C61.2594 19.8462 50.0321 17.5024 48.1843 17.464C47.9776 17.4599 47.3747 15.0341 46.8451 12.074C45.0397 1.98479 43.64 -0.570825 40.3686 0.249627C38.4655 0.727351 37.3922 3.06651 36.024 9.71508C33.7245 20.8866 31.265 20.3955 28.7763 8.26911C27.4901 2.00167 26.215 0 23.5092 0C23.0681 0 22.198 0.545804 21.577 1.21264ZM28.9696 29.4123C29.8076 31.2511 29.8472 35.1939 29.0429 36.6969C28.043 38.5647 26.3308 38.0876 25.5503 35.7228C23.9673 30.9258 27.0589 25.2199 28.9696 29.4123ZM40.6829 29.0556C41.5448 30.6663 41.4267 35.6606 40.4966 36.9326C39.4909 38.3081 37.9644 37.7658 37.2025 35.763C36.418 33.699 36.482 32.3182 37.4726 29.9482C38.4078 27.7109 39.7616 27.3344 40.6829 29.0556Z" fill="black"/>
<rect x="18" y="18" width="30" height="30" rx="15" fill="white"/>
<path fill-rule="evenodd" clip-rule="evenodd" d="M26.2497 25.6911C26.3754 25.5704 26.5414 25.5 26.7124 25.5H42.6741C42.9658 25.5 43.1117 25.852 42.9055 26.0582L39.7523 29.2113C39.6317 29.332 39.4657 29.4024 39.2897 29.4024H23.3279C23.0362 29.4024 22.8904 29.0504 23.0966 28.8442L26.2497 25.6911ZM26.2497 37.4636C26.3704 37.3429 26.5363 37.2725 26.7124 37.2725H42.6741C42.9658 37.2725 43.1117 37.6245 42.9055 37.8307L39.7523 40.9838C39.6317 41.1045 39.4657 41.1749 39.2897 41.1749H23.3279C23.0362 41.1749 22.8904 40.8229 23.0966 40.6167L26.2497 37.4636ZM39.2897 31.3496C39.4657 31.3496 39.6317 31.42 39.7523 31.5407L42.9055 34.6938C43.1117 34.9 42.9658 35.252 42.6741 35.252H26.7124C26.5363 35.252 26.3704 35.1816 26.2497 35.0609L23.0966 31.9078C22.8904 31.7016 23.0362 31.3496 23.3279 31.3496H39.2897Z" fill="url(#paint0_linear_2494_2883)"/>
<defs>
<linearGradient id="paint0_linear_2494_2883" x1="38.7188" y1="22.3485" x2="27.672" y2="43.5076" gradientUnits="userSpaceOnUse">
<stop stop-color="#00FFA3"/>
<stop offset="1" stop-color="#DC1FFF"/>
</linearGradient>
</defs>
</svg>
