<svg width="66" height="66" viewBox="0 0 66 66" fill="none" xmlns="http://www.w3.org/2000/svg">
<path fill-rule="evenodd" clip-rule="evenodd" d="M21.577 1.21264C20.3053 2.57657 19.4382 5.60526 18.2817 12.7188C17.847 15.3937 17.361 17.7125 17.2021 17.8719C17.0427 18.0307 13.8376 18.7721 10.0796 19.5186C2.45077 21.0344 0.254308 22.1993 0.254308 24.7299C0.254308 27.2018 2.42924 28.3836 9.76534 29.8976C21.2458 32.2676 20.5352 34.7185 7.62824 37.2724C1.44508 38.4955 -1.57084 41.5637 0.817683 44.202C1.91766 45.4175 6.48403 46.7564 12.9657 47.7637C18.2643 48.587 18.0868 48.3595 19.4754 56.1009C21.0852 65.07 23.4999 67.9125 26.7498 64.6632C27.947 63.4669 28.6041 61.8888 29.3403 58.4424C31.0421 50.4729 31.6642 48.6062 32.6821 48.4107C34.1773 48.1227 35.5752 50.8442 36.7649 56.3586C38.6034 64.8803 40.7376 67.5569 43.7838 65.1613C45.3552 63.926 46.6431 59.8831 47.675 52.9529C48.0324 50.5532 48.5084 48.4171 48.7331 48.2053C48.9583 47.9941 52.0231 47.2446 55.5442 46.5406C64.4872 44.7519 66.8222 43.3216 65.6902 40.3255C65.0023 38.5048 62.4735 37.3823 56.1099 36.0731C49.9559 34.8069 48.2692 34.118 48.2692 32.8693C48.2692 31.5187 50.5332 30.4609 56.1262 29.1976C62.9903 27.6475 64.3173 27.104 65.4493 25.377C66.7011 23.4661 65.8019 21.7437 62.924 20.5416C61.2594 19.8462 50.0321 17.5024 48.1843 17.464C47.9776 17.4599 47.3747 15.0341 46.8451 12.074C45.0397 1.98479 43.64 -0.570825 40.3686 0.249627C38.4655 0.727351 37.3922 3.06651 36.024 9.71508C33.7245 20.8866 31.265 20.3955 28.7763 8.26911C27.4901 2.00167 26.215 0 23.5092 0C23.0681 0 22.198 0.545804 21.577 1.21264ZM28.9696 29.4123C29.8076 31.2511 29.8472 35.1939 29.0429 36.6969C28.043 38.5647 26.3308 38.0876 25.5503 35.7228C23.9673 30.9258 27.0589 25.2199 28.9696 29.4123ZM40.6829 29.0556C41.5448 30.6663 41.4267 35.6606 40.4966 36.9326C39.4909 38.3081 37.9644 37.7658 37.2025 35.763C36.418 33.699 36.482 32.3182 37.4726 29.9482C38.4078 27.7109 39.7616 27.3344 40.6829 29.0556Z" fill="black"/>
<rect x="18" y="18" width="30" height="30" rx="15" fill="#2775CA"/>
<path fill-rule="evenodd" clip-rule="evenodd" d="M24.2493 29.9374C22.4367 34.75 24.9368 40.1875 29.8118 41.9374C29.9993 42.0625 30.1868 42.3124 30.1868 42.4999V43.375C30.1868 43.4999 30.1868 43.5625 30.1242 43.6249C30.0618 43.8749 29.8118 43.9999 29.5617 43.8749C26.0618 42.7499 23.3742 40.0624 22.2492 36.5624C20.3742 30.625 23.6243 24.3124 29.5617 22.4374C29.6243 22.375 29.7492 22.375 29.8118 22.375C30.0618 22.4374 30.1868 22.6249 30.1868 22.8749V23.7499C30.1868 24.0625 30.0618 24.25 29.8118 24.3749C27.2493 25.3124 25.1868 27.3124 24.2493 29.9374ZM35.8743 22.6874C35.9367 22.4374 36.1868 22.3124 36.4368 22.4374C39.8742 23.5624 42.6243 26.2499 43.7493 29.8124C45.6243 35.7499 42.3743 42.0625 36.4368 43.9375C36.3743 43.9999 36.2493 43.9999 36.1868 43.9999C35.9367 43.9375 35.8118 43.75 35.8118 43.4999V42.625C35.8118 42.3124 35.9367 42.1249 36.1868 41.9999C38.7492 41.0624 40.8117 39.0625 41.7492 36.4375C43.5618 31.6249 41.0618 26.1874 36.1868 24.4375C35.9993 24.3124 35.8118 24.0625 35.8118 23.8124V22.9375C35.8118 22.8124 35.8118 22.75 35.8743 22.6874ZM33.1868 32.1246C35.8118 32.437 37.1243 33.187 37.1243 35.3745C37.1243 37.062 35.8744 38.3745 33.9994 38.6871V40.1871C33.9368 40.4995 33.7493 40.687 33.4993 40.687H32.5618C32.2493 40.6245 32.0618 40.437 32.0618 40.1871V38.6871C29.9993 38.3745 28.9993 37.2495 28.7494 35.6871V35.6245C28.7494 35.3745 28.9369 35.187 29.1868 35.187H30.2494C30.4369 35.187 30.6244 35.3121 30.6868 35.562C30.8743 36.4995 31.4368 37.1871 33.0619 37.1871C34.2493 37.1871 35.1244 36.4996 35.1244 35.4996C35.1244 34.4995 34.5619 34.1245 32.8118 33.8121C30.1868 33.4995 28.9369 32.6871 28.9369 30.6246C28.9369 29.062 30.1243 27.8121 31.9993 27.562V26.1246C32.0618 25.812 32.2493 25.6245 32.4994 25.6245H33.4369C33.7493 25.687 33.9368 25.8745 33.9368 26.1246V27.6246C35.3743 27.7495 36.4993 28.812 36.7493 30.187V30.2496C36.7493 30.4995 36.5618 30.687 36.3118 30.687H35.3119C35.1244 30.687 34.9369 30.562 34.8743 30.3745C34.5619 29.437 33.9368 29.062 32.8118 29.062C31.5619 29.062 30.9368 29.6244 30.9368 30.4995C30.9368 31.3746 31.3118 31.8745 33.1868 32.1246Z" fill="white"/>
</svg>
