<svg width="115" height="114" viewBox="0 0 115 114" fill="none" xmlns="http://www.w3.org/2000/svg">
<path fill-rule="evenodd" clip-rule="evenodd" d="M37.8747 2.68808C35.6897 5.01458 34.1997 10.1807 32.2127 22.3145C31.4657 26.8772 30.6307 30.8325 30.3577 31.1044C30.0837 31.3754 24.5767 32.6399 18.1197 33.9133C5.01174 36.4989 1.23774 38.4859 1.23774 42.8025C1.23774 47.0188 4.97474 49.0346 17.5797 51.6172C37.3057 55.6598 36.0847 59.8404 13.9077 64.1966C3.28374 66.2829 -1.89826 71.5166 2.20574 76.0167C4.09574 78.0901 11.9417 80.374 23.0787 82.092C32.1827 83.4965 31.8777 83.1084 34.2637 96.3131C37.0297 111.612 41.1787 116.461 46.7627 110.918C48.8197 108.878 49.9487 106.186 51.2137 100.307C54.1377 86.7133 55.2067 83.5292 56.9557 83.1957C59.5247 82.7044 61.9267 87.3465 63.9707 96.7528C67.1297 111.289 70.7967 115.854 76.0307 111.768C78.7307 109.661 80.9437 102.765 82.7167 90.9435C83.3307 86.8503 84.1487 83.2067 84.5347 82.8454C84.9217 82.4851 90.1877 81.2067 96.2377 80.0057C111.604 76.9547 115.616 74.515 113.671 69.4044C112.489 66.2988 108.144 64.3842 97.2097 62.151C86.6357 59.9912 83.7377 58.8161 83.7377 56.6861C83.7377 54.3824 87.6277 52.578 97.2377 50.4232C109.032 47.779 111.312 46.852 113.257 43.9062C115.408 40.6467 113.863 37.7088 108.918 35.6582C106.058 34.4721 86.7667 30.4742 83.5917 30.4087C83.2367 30.4017 82.2007 26.2638 81.2907 21.2148C78.1887 4.00517 75.7837 -0.35405 70.1627 1.04543C66.8927 1.8603 65.0487 5.8503 62.6977 17.191C58.7467 36.2468 54.5207 35.4091 50.2447 14.7246C48.0347 4.03396 45.8437 0.619629 41.1947 0.619629C40.4367 0.619629 38.9417 1.55063 37.8747 2.68808ZM50.5767 50.7894C52.0167 53.9258 52.0847 60.6513 50.7027 63.215C48.9847 66.401 46.0427 65.5871 44.7017 61.5535C41.9817 53.371 47.2937 43.6382 50.5767 50.7894ZM70.7027 50.181C72.1837 52.9283 71.9807 61.4473 70.3827 63.617C68.6547 65.9633 66.0317 65.0383 64.7227 61.622C63.3747 58.1014 63.4847 55.7461 65.1867 51.7035C66.7937 47.8872 69.1197 47.2451 70.7027 50.181Z" fill="white"/>
</svg>
