<?xml version="1.0" encoding="UTF-8"?><svg id="Layer_1" xmlns="http://www.w3.org/2000/svg" viewBox="0 0 312.93 78.8"><defs><style>.cls-1{stroke-width:0px;}</style></defs><path class="cls-1" d="m97.7,53.83l-1.43,10.49c-.16,1.17-1.16,2.04-2.34,2.04h-2.74c-1.45,0-2.56-1.3-2.33-2.74l7.67-47.39c.18-1.14,1.17-1.98,2.33-1.98h6.54c1.15,0,2.14.83,2.33,1.97l7.97,47.39c.24,1.44-.87,2.75-2.33,2.75h-2.97c-1.17,0-2.16-.85-2.33-2.01l-1.59-10.56c-.17-1.15-1.17-2.01-2.33-2.01h-4.11c-1.18,0-2.18.87-2.34,2.04Zm4.86-8.89c1.43,0,2.54-1.27,2.34-2.69-1.18-8.38-2.19-15.83-2.71-20.95h-.28c-.19,3.78-1.52,13.2-2.6,20.96-.2,1.42.9,2.68,2.34,2.68h.92Z"/><path class="cls-1" d="m121.04,14.25h2.73c1.3,0,2.36,1.06,2.36,2.36v40.72c0,1.3,1.06,2.36,2.36,2.36h8.14c1.4,0,2.49,1.21,2.35,2.59l-.2,1.95c-.12,1.21-1.14,2.12-2.35,2.12h-15.39c-1.3,0-2.36-1.06-2.36-2.36V16.61c0-1.3,1.06-2.36,2.36-2.36Z"/><path class="cls-1" d="m143.53,14.25h2.73c1.3,0,2.36,1.06,2.36,2.36v40.72c0,1.3,1.06,2.36,2.36,2.36h8.14c1.4,0,2.49,1.21,2.35,2.59l-.2,1.95c-.12,1.21-1.14,2.12-2.35,2.12h-15.39c-1.3,0-2.36-1.06-2.36-2.36V16.61c0-1.3,1.06-2.36,2.36-2.36Z"/><path class="cls-1" d="m180.2,42.22h-6.79c-1.3,0-2.36,1.06-2.36,2.36v12.57c0,1.3,1.06,2.36,2.36,2.36h8.15c1.43,0,2.53,1.27,2.34,2.68l-.3,2.13c-.16,1.17-1.16,2.03-2.34,2.03h-15.3c-1.3,0-2.36-1.06-2.36-2.36V16.61c0-1.3,1.06-2.36,2.36-2.36h14.88c1.3,0,2.36,1.06,2.36,2.36v2.19c0,1.3-1.06,2.36-2.36,2.36h-7.43c-1.3,0-2.36,1.06-2.36,2.36v9.49c0,1.3,1.06,2.36,2.36,2.36h6.79c1.3,0,2.36,1.06,2.36,2.36v2.13c0,1.3-1.06,2.36-2.36,2.36Z"/><path class="cls-1" d="m185.96,61.03l13.49-36.7c.57-1.54-.57-3.17-2.21-3.17h-7.75c-1.3,0-2.36-1.06-2.36-2.36v-2.19c0-1.3,1.06-2.36,2.36-2.36h16.98c1.3,0,2.36,1.06,2.36,2.36v3.02c0,.28-.05.55-.14.81l-13.08,35.9c-.56,1.54.58,3.17,2.22,3.17h8.7c1.43,0,2.53,1.27,2.34,2.68l-.3,2.13c-.16,1.17-1.16,2.03-2.34,2.03h-18.04c-1.3,0-2.36-1.06-2.36-2.36v-2.15c0-.28.05-.55.14-.81Z"/><path class="cls-1" d="m214.05,14.25h2.73c1.3,0,2.36,1.06,2.36,2.36v40.72c0,1.3,1.06,2.36,2.36,2.36h8.14c1.4,0,2.49,1.21,2.35,2.59l-.2,1.95c-.12,1.21-1.14,2.12-2.35,2.12h-15.39c-1.3,0-2.36-1.06-2.36-2.36V16.61c0-1.3,1.06-2.36,2.36-2.36Z"/><path class="cls-1" d="m242.26,53.83l-1.43,10.49c-.16,1.17-1.16,2.04-2.34,2.04h-2.74c-1.45,0-2.56-1.3-2.33-2.74l7.67-47.39c.18-1.14,1.17-1.98,2.33-1.98h6.54c1.15,0,2.14.83,2.33,1.97l7.97,47.39c.24,1.44-.87,2.75-2.33,2.75h-2.97c-1.17,0-2.16-.85-2.33-2.01l-1.59-10.56c-.17-1.15-1.17-2.01-2.33-2.01h-4.11c-1.18,0-2.18.87-2.34,2.04Zm4.86-8.89c1.43,0,2.54-1.27,2.34-2.69-1.18-8.38-2.19-15.83-2.71-20.95h-.28c-.19,3.78-1.52,13.2-2.6,20.96-.2,1.42.9,2.68,2.34,2.68h.92Z"/><path class="cls-1" d="m263.23,16.61c0-1.3,1.06-2.36,2.36-2.36h7.95c8.8,0,12.17,4.23,12.17,11.74v2.02c0,4.68-1,7.26-2.33,8.76-.87.98-.72,2.47.26,3.34,1.65,1.47,3.05,4.03,3.05,8.84v3.93c0,8.87-3.55,13.48-12.57,13.48h-8.54c-1.3,0-2.36-1.06-2.36-2.36V16.61Zm9.56,19.05c4.53,0,5.89-1.51,5.89-6.88v-2.1c0-4.42-1.59-6.24-5.58-6.24h-.31c-1.3,0-2.36,1.06-2.36,2.36v10.51c0,1.3,1.06,2.36,2.36,2.36h0Zm-2.36,22.21c0,1.3,1.06,2.36,2.36,2.36h.48c4.87,0,6.08-2.2,6.08-7.55v-3.5c0-5.22-1.45-7.47-6.55-7.47h0c-1.3,0-2.36,1.06-2.36,2.36v13.8Z"/><path class="cls-1" d="m294.34,51.18c1.3,0,2.36,1.06,2.36,2.36v.81c0,4.12,1.29,6.39,4.48,6.39s4.24-2.9,4.24-6.84c0-5.72-1.24-7.6-6.8-11.98-5.6-4.41-8.56-7.19-8.56-14.9,0-6.8,2.05-13.59,11.17-13.58,9.18.02,10.8,6.47,10.8,12.35v.34c0,1.3-1.06,2.36-2.36,2.36h-2.67c-1.3,0-2.36-1.06-2.36-2.36v-.14c0-3.79-.67-6.13-3.55-6.13s-3.58,2.47-3.58,6.08c0,3.95.76,5.77,5.39,9.18,7.66,5.7,10.03,8.97,10.03,17.67,0,7.38-2.47,14.3-11.98,14.3s-11.71-5.99-11.71-12.86v-.71c0-1.3,1.06-2.36,2.36-2.36h2.73Z"/><path class="cls-1" d="m15.74.76c-2.88,2.88-.96,6.89,1.26,10.62,1.11,1.86,2.3,3.64,3,5.17.69,1.5.9,2.74.13,3.57-.84.78-2.08.56-3.57-.13-1.53-.7-3.31-1.89-5.17-3-3.72-2.22-7.74-4.13-10.62-1.26-3.69,3.69,7.05,17.29,10.52,21.51.66.8,1.63,1.26,2.66,1.27,5.24.02,21.54-.14,21.54-.14.8,0,1.52-.32,2.05-.85s.85-1.25.85-2.05c0,0,.16-16.3.14-21.54,0-1.03-.47-2-1.27-2.66C33.03,7.81,19.43-2.93,15.74.76Zm8.4,28.01c.9,1.54.62,3.37-.65,4.09-1.26.72-3.01.05-3.9-1.48-.3-.5-.46-1.03-.51-1.55,0,0,0,0,0,0-.11-1.06.3-2.05,1.15-2.53.39-.22.81-.31,1.25-.29,1,.06,2.03.71,2.66,1.77Zm8.72-5.28c-.72,1.26-2.54,1.55-4.09.65-1.06-.62-1.71-1.66-1.77-2.66-.02-.44.07-.87.29-1.25.48-.85,1.48-1.26,2.53-1.15,0,0,0,0,0,0,.52.05,1.05.21,1.55.51,1.54.9,2.21,2.65,1.48,3.9Z"/><path class="cls-1" d="m63.06,78.03c2.88-2.88.96-6.89-1.26-10.62-1.11-1.86-2.3-3.64-3-5.17-.69-1.5-.9-2.74-.13-3.57.84-.78,2.08-.56,3.57.13,1.53.7,3.31,1.89,5.17,3,3.72,2.22,7.74,4.13,10.62,1.26,3.69-3.69-7.05-17.29-10.52-21.51-.66-.8-1.63-1.26-2.66-1.27-5.24-.02-21.54.14-21.54.14-.8,0-1.52.32-2.05.85s-.85,1.25-.85,2.05c0,0-.16,16.3-.14,21.54,0,1.03.47,2,1.27,2.66,4.23,3.47,17.82,14.22,21.51,10.52Zm-8.4-28.01c-.9-1.54-.62-3.37.65-4.09,1.26-.72,3.01-.05,3.9,1.48.3.5.46,1.03.51,1.55,0,0,0,0,0,0,.11,1.06-.3,2.05-1.15,2.53-.39.22-.81.31-1.25.29-1-.06-2.03-.71-2.66-1.77Zm-8.72,5.28c.72-1.26,2.54-1.55,4.09-.65,1.06.62,1.71,1.66,1.77,2.66.02.44-.07.87-.29,1.25-.48.85-1.48,1.26-2.53,1.15,0,0,0,0,0,0-.52-.05-1.05-.21-1.55-.51-1.54-.9-2.21-2.65-1.48-3.9Z"/><path class="cls-1" d="m78.03,15.74c-2.88-2.88-6.89-.96-10.62,1.26-1.86,1.11-3.64,2.3-5.17,3-1.5.69-2.74.9-3.57.13-.78-.84-.56-2.08.13-3.57.7-1.53,1.89-3.31,3-5.17,2.22-3.72,4.13-7.74,1.26-10.62-3.69-3.69-17.29,7.05-21.51,10.52-.8.66-1.26,1.63-1.27,2.66-.02,5.24.14,21.54.14,21.54,0,.8.32,1.52.85,2.05s1.25.85,2.05.85c0,0,16.3.16,21.54.14,1.03,0,2-.47,2.66-1.27,3.47-4.23,14.22-17.82,10.52-21.51Zm-28.01,8.4c-1.54.9-3.37.62-4.09-.65-.72-1.26-.05-3.01,1.48-3.9.5-.3,1.03-.46,1.55-.51,0,0,0,0,0,0,1.06-.11,2.05.3,2.53,1.15.22.39.31.81.29,1.25-.06,1-.71,2.03-1.77,2.66Zm5.28,8.72c-1.26-.72-1.55-2.54-.65-4.09.62-1.06,1.66-1.71,2.66-1.77.44-.02.87.07,1.25.29.85.48,1.26,1.48,1.15,2.53,0,0,0,0,0,0-.05.52-.21,1.05-.51,1.55-.9,1.54-2.65,2.21-3.9,1.48Z"/><path class="cls-1" d="m.76,63.06c2.88,2.88,6.89.96,10.62-1.26,1.86-1.11,3.64-2.3,5.17-3,1.5-.69,2.74-.9,3.57-.13.78.84.56,2.08-.13,3.57-.7,1.53-1.89,3.31-3,5.17-2.22,3.72-4.13,7.74-1.26,10.62,3.69,3.69,17.29-7.05,21.51-10.52.8-.66,1.26-1.63,1.27-2.66.02-5.24-.14-21.54-.14-21.54,0-.8-.32-1.52-.85-2.05s-1.25-.85-2.05-.85c0,0-16.3-.16-21.54-.14-1.03,0-2,.47-2.66,1.27-3.47,4.23-14.22,17.82-10.52,21.51Zm28.01-8.4c1.54-.9,3.37-.62,4.09.65.72,1.26.05,3.01-1.48,3.9-.5.3-1.03.46-1.55.51,0,0,0,0,0,0-1.06.11-2.05-.3-2.53-1.15-.22-.39-.31-.81-.29-1.25.06-1,.71-2.03,1.77-2.66Zm-5.28-8.72c1.26.72,1.55,2.54.65,4.09-.62,1.06-1.66,1.71-2.66,1.77-.44.02-.87-.07-1.25-.29-.85-.48-1.26-1.48-1.15-2.53,0,0,0,0,0,0,.05-.52.21-1.05.51-1.55.9-1.54,2.65-2.21,3.9-1.48Z"/></svg>