<svg width="66" height="66" viewBox="0 0 66 66" fill="none" xmlns="http://www.w3.org/2000/svg">
<path fill-rule="evenodd" clip-rule="evenodd" d="M21.577 1.21166C20.3053 2.57559 19.4382 5.60428 18.2817 12.7178C17.847 15.3927 17.361 17.7115 17.2021 17.8709C17.0427 18.0298 13.8376 18.7711 10.0796 19.5176C2.45077 21.0334 0.254308 22.1984 0.254308 24.729C0.254308 27.2008 2.42924 28.3826 9.76534 29.8966C21.2458 32.2666 20.5352 34.7175 7.62824 37.2714C1.44508 38.4945 -1.57084 41.5628 0.817683 44.201C1.91766 45.4166 6.48403 46.7555 12.9657 47.7627C18.2643 48.5861 18.0868 48.3586 19.4754 56.0999C21.0852 65.069 23.4999 67.9115 26.7498 64.6623C27.947 63.4659 28.6041 61.8879 29.3403 58.4414C31.0421 50.4719 31.6642 48.6053 32.6821 48.4098C34.1773 48.1217 35.5752 50.8432 36.7649 56.3577C38.6034 64.8793 40.7376 67.556 43.7838 65.1604C45.3552 63.925 46.6431 59.8821 47.675 52.9519C48.0324 50.5522 48.5084 48.4162 48.7331 48.2044C48.9583 47.9931 52.0231 47.2437 55.5442 46.5396C64.4872 44.7509 66.8222 43.3206 65.6902 40.3245C65.0023 38.5038 62.4735 37.3814 56.1099 36.0721C49.9559 34.806 48.2692 34.117 48.2692 32.8683C48.2692 31.5178 50.5332 30.4599 56.1262 29.1966C62.9903 27.6465 64.3173 27.103 65.4493 25.376C66.7011 23.4651 65.8019 21.7427 62.924 20.5406C61.2594 19.8452 50.0321 17.5014 48.1843 17.463C47.9776 17.4589 47.3747 15.0331 46.8451 12.0731C45.0397 1.98382 43.64 -0.571802 40.3686 0.24865C38.4655 0.726374 37.3922 3.06554 36.024 9.71411C33.7245 20.8856 31.265 20.3945 28.7763 8.26813C27.4901 2.00069 26.215 -0.000976562 23.5092 -0.000976562C23.0681 -0.000976562 22.198 0.544827 21.577 1.21166ZM28.9696 29.4114C29.8076 31.2501 29.8472 35.1929 29.0429 36.6959C28.043 38.5638 26.3308 38.0866 25.5503 35.7218C23.9673 30.9248 27.0589 25.2189 28.9696 29.4114ZM40.6829 29.0547C41.5448 30.6653 41.4267 35.6596 40.4966 36.9316C39.4909 38.3071 37.9644 37.7648 37.2025 35.762C36.418 33.6981 36.482 32.3173 37.4726 29.9473C38.4078 27.7099 39.7616 27.3335 40.6829 29.0547Z" fill="white"/>
<rect x="18" y="17.999" width="30" height="30" rx="15" fill="#2775CA"/>
<path fill-rule="evenodd" clip-rule="evenodd" d="M24.2493 29.9364C22.4367 34.749 24.9368 40.1865 29.8118 41.9364C29.9993 42.0615 30.1868 42.3114 30.1868 42.4989V43.374C30.1868 43.499 30.1868 43.5615 30.1242 43.6239C30.0618 43.874 29.8118 43.9989 29.5617 43.874C26.0618 42.749 23.3742 40.0614 22.2492 36.5615C20.3742 30.624 23.6243 24.3114 29.5617 22.4364C29.6243 22.374 29.7492 22.374 29.8118 22.374C30.0618 22.4364 30.1868 22.6239 30.1868 22.874V23.7489C30.1868 24.0615 30.0618 24.249 29.8118 24.374C27.2493 25.3115 25.1868 27.3114 24.2493 29.9364ZM35.8743 22.6865C35.9367 22.4364 36.1868 22.3115 36.4368 22.4364C39.8742 23.5614 42.6243 26.249 43.7493 29.8115C45.6243 35.7489 42.3743 42.0615 36.4368 43.9365C36.3743 43.9989 36.2493 43.9989 36.1868 43.9989C35.9367 43.9365 35.8118 43.749 35.8118 43.499V42.624C35.8118 42.3114 35.9367 42.1239 36.1868 41.999C38.7492 41.0615 40.8117 39.0615 41.7492 36.4365C43.5618 31.6239 41.0618 26.1864 36.1868 24.4365C35.9993 24.3114 35.8118 24.0615 35.8118 23.8115V22.9365C35.8118 22.8114 35.8118 22.749 35.8743 22.6865ZM33.1868 32.1236C35.8118 32.436 37.1243 33.186 37.1243 35.3735C37.1243 37.061 35.8744 38.3735 33.9994 38.6861V40.1861C33.9368 40.4985 33.7493 40.686 33.4993 40.686H32.5618C32.2493 40.6235 32.0618 40.436 32.0618 40.1861V38.6861C29.9993 38.3735 28.9993 37.2485 28.7494 35.6861V35.6235C28.7494 35.3735 28.9369 35.186 29.1868 35.186H30.2494C30.4369 35.186 30.6244 35.3111 30.6868 35.561C30.8743 36.4985 31.4368 37.1861 33.0619 37.1861C34.2493 37.1861 35.1244 36.4986 35.1244 35.4986C35.1244 34.4985 34.5619 34.1235 32.8118 33.8111C30.1868 33.4985 28.9369 32.6861 28.9369 30.6236C28.9369 29.061 30.1243 27.8111 31.9993 27.561V26.1236C32.0618 25.811 32.2493 25.6235 32.4994 25.6235H33.4369C33.7493 25.686 33.9368 25.8735 33.9368 26.1236V27.6236C35.3743 27.7485 36.4993 28.811 36.7493 30.186V30.2486C36.7493 30.4985 36.5618 30.686 36.3118 30.686H35.3119C35.1244 30.686 34.9369 30.561 34.8743 30.3735C34.5619 29.436 33.9368 29.061 32.8118 29.061C31.5619 29.061 30.9368 29.6234 30.9368 30.4985C30.9368 31.3736 31.3118 31.8735 33.1868 32.1236Z" fill="white"/>
</svg>
